<svg xmlns="http://www.w3.org/2000/svg" xmlns:xlink="http://www.w3.org/1999/xlink" width="2000" zoomAndPan="magnify" viewBox="0 0 1500 1499.999933" height="2000" preserveAspectRatio="xMidYMid meet" version="1.0"><rect x="-150" width="1800" fill="#ffffff" y="-149.999993" height="1799.99992" fill-opacity="1"/><rect x="-150" width="1800" fill="#000000" y="-149.999993" height="1799.99992" fill-opacity="1"/><path fill="#f2b52f" d="M 677.820312 1203.433594 L 862.355469 1309.980469 L 743.480469 1439.898438 L 482.199219 1148.222656 Z M 677.820312 1203.433594 " fill-opacity="1" fill-rule="nonzero"/><path fill="#f2b52f" d="M 704.859375 763.078125 L 1123.851562 351.339844 L 1141.558594 245.9375 L 1091.039062 245.9375 L 421.085938 700.316406 L 475.941406 789.875 Z M 704.859375 763.078125 " fill-opacity="1" fill-rule="nonzero"/><path fill="#f2b52f" d="M 709.269531 1165.929688 L 709.878906 1165.929688 C 709.878906 1165.929688 709.269531 1166.984375 709.269531 1166.984375 L 847.699219 1246.90625 L 903.746094 1041.199219 L 757.734375 956.894531 L 757.734375 900.515625 C 757.734375 900.515625 965.371094 1020.394531 965.371094 1020.394531 C 965.371094 1020.394531 1105.125 1020.394531 1105.125 1020.394531 L 1105.125 923.535156 C 1105.125 923.535156 1130.125 915.183594 1130.125 915.183594 L 1130.125 815.699219 L 1200 815.699219 C 1200 815.699219 1123.851562 420.054688 1123.851562 420.054688 L 709.28125 827.355469 L 709.28125 1165.90625 Z M 757.734375 857.496094 L 757.734375 855.402344 C 757.734375 855.402344 758.632812 855.925781 758.632812 855.925781 Z M 757.734375 857.496094 " fill-opacity="1" fill-rule="nonzero"/><path fill="#f2b52f" d="M 252.519531 848.039062 L 261.886719 687.789062 L 333.867188 646.515625 L 454.929688 844.164062 L 662.117188 819.917969 L 662.117188 1148.222656 L 662.058594 1148.0625 L 442.109375 1085.984375 L 498.835938 936.039062 L 359.242188 952.386719 Z M 252.519531 848.039062 " fill-opacity="1" fill-rule="nonzero"/><path fill="#f2b52f" d="M 354.246094 593.699219 L 383.242188 371.113281 L 544.179688 200.277344 L 749.371094 153.402344 L 904.0625 172.15625 L 941.042969 146.367188 L 933.058594 179.691406 L 900.71875 320.957031 L 780.324219 402.601562 L 820.527344 227.039062 L 760.066406 268.042969 L 719.867188 443.609375 L 595.097656 528.242188 L 635.285156 352.679688 L 574.828125 393.683594 L 534.636719 569.246094 L 396.707031 662.789062 L 396.742188 662.605469 L 396.5625 662.789062 Z M 354.246094 593.699219 " fill-opacity="1" fill-rule="nonzero"/><path fill="#f2b52f" d="M 989.007812 144.578125 L 1122.808594 7.566406 L 1098.488281 176.261719 L 961.179688 279.953125 Z M 989.007812 144.578125 " fill-opacity="1" fill-rule="nonzero"/><path fill="#f2b52f" d="M 387.410156 1168.53125 L 235.84375 1026.335938 L 259.289062 1165.929688 L 328.035156 1224.261719 L 394.703125 1224.261719 Z M 387.410156 1168.53125 " fill-opacity="1" fill-rule="nonzero"/><path fill="#f2b52f" d="M 392.492188 1358.761719 L 285.71875 1271.054688 L 440.335938 1271.054688 L 440.335938 1172.929688 L 724.679688 1490.355469 L 552.769531 1490.355469 L 446 1402.660156 L 572.675781 1402.660156 L 533.351562 1358.761719 Z M 392.492188 1358.761719 " fill-opacity="1" fill-rule="nonzero"/><path fill="#f2b52f" d="M 1100.191406 1168.53125 L 1251.746094 1026.335938 L 1228.316406 1165.929688 L 1159.570312 1224.261719 L 1092.898438 1224.261719 Z M 1100.191406 1168.53125 " fill-opacity="1" fill-rule="nonzero"/><path fill="#f2b52f" d="M 1095.113281 1358.761719 L 1201.871094 1271.054688 L 1047.265625 1271.054688 L 1047.265625 1172.929688 L 762.921875 1490.355469 L 934.832031 1490.355469 L 1041.605469 1402.660156 L 914.925781 1402.660156 L 954.253906 1358.761719 Z M 1095.113281 1358.761719 " fill-opacity="1" fill-rule="nonzero"/></svg>